<?xml version="1.0" encoding="utf-8"?>
<!-- Generator: Adobe Illustrator 27.9.0, SVG Export Plug-In . SVG Version: 6.00 Build 0)  -->
<svg version="1.1" id="Vrstva_1" xmlns="http://www.w3.org/2000/svg" xmlns:xlink="http://www.w3.org/1999/xlink" x="0px" y="0px"
	 viewBox="0 0 425.2 425.2" style="enable-background:new 0 0 425.2 425.2;" xml:space="preserve">
<style type="text/css">
	.st0{fill:none;stroke:#000000;stroke-width:6;stroke-miterlimit:10;}
	.st1{fill:#FFFFFF;stroke:#000000;stroke-width:6;stroke-miterlimit:10;}
	.st2{fill:none;stroke:#000000;stroke-width:6;stroke-linecap:round;stroke-miterlimit:10;}
	.st3{fill:none;stroke:#000000;stroke-width:7.6135;stroke-miterlimit:10;}
	.st4{fill:#FFFFFF;stroke:#000000;stroke-width:7.6135;stroke-miterlimit:10;}
	.st5{fill:none;stroke:#000000;stroke-width:7.6135;stroke-linecap:round;stroke-miterlimit:10;}
</style>
<path d="M340.3,100.1c0-24.5-66.6-37.6-129.3-37.6S81.7,75.7,81.7,100.1v34.4h0c0.2,5.7,4.1,10.8,10.8,15.2v94.5
	c0,65.3,53.2,118.5,118.5,118.5c65.3,0,118.5-53.2,118.5-118.5v-94.5c6.7-4.5,10.6-9.6,10.8-15.3h0V100.1z M123.2,79.9
	c23.4-6.3,54.5-9.8,87.7-9.8s64.4,3.5,87.7,9.8c16.4,4.4,33.9,12.1,33.9,20.3s-17.5,15.8-33.9,20.3c-23.4,6.3-54.5,9.8-87.7,9.8
	s-64.4-3.5-87.7-9.8c-16.4-4.4-33.9-12.1-33.9-20.3S106.8,84.3,123.2,79.9z M297.6,154.5c-9.8,2.6-20.9,4.7-32.9,6.2v-26.2
	c11.8-1.5,23-3.5,32.9-6V154.5z M160.6,134.9v26.2c-13.7-1.6-26.2-3.9-37.1-6.9c-0.6-0.2-1.2-0.3-1.7-0.5v-26
	C133.2,130.9,146.5,133.2,160.6,134.9z M168.2,135.7c12.7,1.2,25.9,1.9,39,2V164c-13.5-0.1-26.6-0.8-39-2V135.7z M214.8,137.8
	c14.2-0.1,28.6-0.9,42.3-2.4v26.2c-13.3,1.4-27.6,2.2-42.3,2.4V137.8z M89.3,134.1L89.3,134.1L89.3,134.1l0-20.5
	c5.7,4.7,14.3,8.7,24.8,12c0,0.1,0,0.3,0,0.4v25.4C101,147,89.4,140.7,89.3,134.1z M321.9,244.2c0,61.1-49.7,110.9-110.9,110.9
	c-61.1,0-110.9-49.7-110.9-110.9V154c24.2,11.5,68.5,17.6,110.9,17.6c42.4,0,86.7-6.1,110.9-17.6V244.2z M305.2,152.3v-25.9
	c11.8-3.5,21.3-7.8,27.5-12.8v20.5h0C332.5,141.2,319.3,147.8,305.2,152.3z"/>
<g>
	<path d="M101.3,239.9l7.5-5.2l5.5,7.9l-7.5,5.2L101.3,239.9z M137.8,290.6l-6.4,4.4l-4.3-6.2l3.8-2.7c1-0.7,1.3-1.7,0.5-2.8
		l-21.6-31.1l7.5-5.2l22.4,32.4C142.5,283.3,141.6,288,137.8,290.6z"/>
	<path d="M140.1,213l28.5,41.1l-6.8,4.7l-2.6-3c-0.2,4-2.2,7.6-6.1,10.3c-6.3,4.3-16.5,4.1-23.5-6.1c-7.2-10.3-3.8-19.9,2.2-24.1
		c3.4-2.3,7.7-3.4,11.9-1.7l-11.1-16L140.1,213z M150.5,258.1c4.1-2.8,4.8-8,1.3-13.1L151,244c-3.8-5.4-9-6.1-12.7-3.5
		c-4.4,3.1-4.9,8.2-1,13.8C141.1,259.8,146.1,261.1,150.5,258.1z"/>
	<path d="M160.9,238.1c-6.7-9.6-4.2-19.6,3.9-25.2c8.2-5.7,17.8-4,24,4.9l1.7,2.5L170,234.5c3.6,4.8,8.4,5.3,11.8,2.9
		c3-2.1,4.2-4.8,2.8-8.6l7.8-5.4c3.8,8.3,0.4,15-6.6,19.8C178.2,248.6,167.8,248,160.9,238.1z M179.8,221c-3.1-4.2-7.2-4.7-10.9-2.2
		c-3.5,2.5-4.6,6.4-2,11.1L179.8,221z"/>
	<path d="M133.4,323.1c-6.9-10-4.2-19.6,4.1-25.3c8.3-5.7,18.2-5,25.2,5.1c6.9,10,4.2,19.6-4.1,25.3
		C150.3,333.9,140.3,333.1,133.4,323.1z M154,321.6c3.9-2.7,5-7.3,0.8-13.3c-4.2-6-9.2-7-13-4.3c-3.8,2.7-4.7,7.7-0.6,13.7
		C145.4,323.6,150.1,324.2,154,321.6z"/>
	<path d="M154.5,268.9l11.8,17.1l18.1-12.5l-11.8-17.1l7.9-5.5l28.5,41.1l-7.9,5.5l-11.6-16.8l-18.1,12.5L183,310l-7.9,5.5
		l-28.5-41.1L154.5,268.9z"/>
	<path d="M201.6,275.8c-6.9-10-4.2-19.6,4.1-25.3c8.3-5.7,18.2-5,25.2,5.1c6.9,10,4.2,19.6-4.1,25.3
		C218.4,286.6,208.5,285.8,201.6,275.8z M222.2,274.3c3.8-2.7,5-7.3,0.8-13.3c-4.2-6-9.2-7-13-4.3c-3.9,2.7-4.7,7.7-0.6,13.7
		S218.3,277,222.2,274.3z"/>
	<path d="M249.9,253l-8.5-26.1l8-5.5l9.6,35.9l-8.6,6l-30.3-21.6l8.4-5.8L249.9,253z"/>
	<path d="M257.6,215.7l3.8,4.4c-0.7-5.2,1.7-9.4,5.1-11.8c6.4-4.4,12.6-3,17.3,3.9l13.1,18.8l-7.5,5.2l-11.6-16.7
		c-2.7-4-6.1-4.5-9.2-2.3c-3.4,2.3-4.5,6.5-0.8,11.8l10.4,15l-7.5,5.2l-19.9-28.7L257.6,215.7z"/>
	<path d="M289.2,215.1c-6.9-10-4.2-19.6,4.1-25.3c8.3-5.7,18.2-5,25.2,5.1c6.9,10,4.2,19.6-4.1,25.3
		C306.1,225.8,296.2,225.1,289.2,215.1z M309.8,213.5c3.9-2.7,5-7.3,0.8-13.3c-4.2-6-9.2-7-13-4.3c-3.8,2.7-4.7,7.7-0.6,13.7
		C301.3,215.6,306,216.2,309.8,213.5z"/>
</g>
</svg>
